<?xml version="1.0" encoding="UTF-8" standalone="no"?><!DOCTYPE svg PUBLIC "-//W3C//DTD SVG 1.1//EN" "http://www.w3.org/Graphics/SVG/1.1/DTD/svg11.dtd"><svg width="100%" height="100%" viewBox="0 0 14 17" version="1.1" xmlns="http://www.w3.org/2000/svg" xmlns:xlink="http://www.w3.org/1999/xlink" xml:space="preserve" xmlns:serif="http://www.serif.com/" style="fill-rule:evenodd;clip-rule:evenodd;stroke-linejoin:round;stroke-miterlimit:1.41421;"><path d="M0,9.8l0,-2.2l2.4,0l0,-7.6l4.8,0c4.4,0 6.6,1.7 6.6,5c0,1.5 -0.5,2.7 -1.6,3.5c-1.1,0.8 -2.7,1.3 -4.6,1.3l-2.3,0l0,2l4,0l0,2.2l-4,0l0,3l-3,0l0,-3l-2.3,0l0,-2.2l2.4,0l0,-2l-2.4,0Zm7.5,-7c-0.4,0 -1.1,0 -2.2,0l0,4.7l2.1,0c2.1,0 3.1,-0.8 3.1,-2.3c0,-0.9 -0.3,-1.5 -0.8,-1.9c-0.4,-0.3 -1.2,-0.5 -2.2,-0.5Z" style="fill:#f37032;fill-rule:nonzero;"/></svg>