<?xml version="1.0" encoding="UTF-8" standalone="no"?><!DOCTYPE svg PUBLIC "-//W3C//DTD SVG 1.1//EN" "http://www.w3.org/Graphics/SVG/1.1/DTD/svg11.dtd"><svg width="100%" height="100%" viewBox="0 0 24 15" version="1.1" xmlns="http://www.w3.org/2000/svg" xmlns:xlink="http://www.w3.org/1999/xlink" xml:space="preserve" xmlns:serif="http://www.serif.com/" style="fill-rule:evenodd;clip-rule:evenodd;stroke-linejoin:round;stroke-miterlimit:1.41421;"><path d="M12.282,1.456c1.13,0 6.918,0.292 10.165,6.044c-3.176,5.752 -8.965,6.044 -10.165,6.044c-0.141,0 -0.141,0 -0.211,0l-0.071,0l-0.071,0c0,0 -0.07,0 -0.211,0c-1.13,0 -6.918,-0.292 -10.165,-6.044c3.247,-5.752 9.035,-6.044 10.165,-6.044l0.564,0Zm0,-1.456c-0.211,0 -0.282,0 -0.282,0c0,0 -0.071,0 -0.282,0c-1.412,0 -8.259,0.364 -11.718,7.5c3.459,7.136 10.306,7.5 11.718,7.5l0.564,0c1.412,0 8.259,-0.364 11.718,-7.5c-3.459,-7.136 -10.306,-7.5 -11.718,-7.5Z" style="fill:#f37032;fill-rule:nonzero;"/><path d="M12,12c2.485,0 4.5,-2.015 4.5,-4.5c0,-2.485 -2.015,-4.5 -4.5,-4.5c-2.485,0 -4.5,2.015 -4.5,4.5c0,2.485 2.015,4.5 4.5,4.5Z" style="fill:#f37032;fill-rule:nonzero;"/></svg>