<?xml version="1.0" encoding="UTF-8" standalone="no"?><!DOCTYPE svg PUBLIC "-//W3C//DTD SVG 1.1//EN" "http://www.w3.org/Graphics/SVG/1.1/DTD/svg11.dtd"><svg width="100%" height="100%" viewBox="0 0 21 12" version="1.1" xmlns="http://www.w3.org/2000/svg" xmlns:xlink="http://www.w3.org/1999/xlink" xml:space="preserve" xmlns:serif="http://www.serif.com/" style="fill-rule:evenodd;clip-rule:evenodd;stroke-linejoin:round;stroke-miterlimit:1.41421;"><path d="M20.3,1.9c0,-0.4 -0.2,-0.7 -0.3,-1c-0.2,-0.3 -0.4,-0.5 -0.8,-0.7c-0.2,-0.1 -0.5,-0.2 -1,-0.2l-13.8,0l-1,3l12.5,0l-1.9,6l-0.9,0l-7.3,0l-4.4,0l-1,3l13.9,0c0.4,0 0.8,-0.1 1.2,-0.2c0.4,-0.2 0.8,-0.4 1.2,-0.7c0.3,-0.2 0.7,-0.6 1,-1c0.2,-0.4 0.5,-0.8 0.6,-1.1l1.8,-5.8c0.2,-0.5 0.3,-0.9 0.2,-1.3Z" style="fill:#f37032;fill-rule:nonzero;"/><path d="M7.4,7.4l1,-2.8l-7.4,0l-1,2.8l7.4,0Z" style="fill:#f37032;fill-rule:nonzero;"/></svg>