<?xml version="1.0" encoding="UTF-8" standalone="no"?><!DOCTYPE svg PUBLIC "-//W3C//DTD SVG 1.1//EN" "http://www.w3.org/Graphics/SVG/1.1/DTD/svg11.dtd"><svg width="100%" height="100%" viewBox="0 0 20 24" version="1.1" xmlns="http://www.w3.org/2000/svg" xmlns:xlink="http://www.w3.org/1999/xlink" xml:space="preserve" xmlns:serif="http://www.serif.com/" style="fill-rule:evenodd;clip-rule:evenodd;"><path d="M8.976,12.699l0,-7.2l2.144,0l0,7.2l-2.144,0Zm0,4.272l0,-2.416l2.144,0l0,2.416l-2.144,0Z" style="fill:#c61f40;fill-rule:nonzero;"/><path d="M11.074,22.248c-0.436,0.263 -0.8,0.462 -1.057,0.597c-0.257,-0.135 -0.621,-0.334 -1.057,-0.597c-0.902,-0.544 -2.101,-1.351 -3.295,-2.406c-2.412,-2.131 -4.665,-5.144 -4.665,-8.935l0,-0.042l0,-0.041l0,-0.041l0,-0.042l0,-0.04l0,-0.041l0,-0.041l0,-0.04l0,-0.04l0,-0.041l0,-0.039l0,-0.04l0,-0.04l0,-0.039l0,-0.04l0,-0.039l0,-0.039l0,-0.039l0,-0.038l0,-0.039l0,-0.038l0,-0.038l0,-0.038l0,-0.038l0,-0.038l0,-0.038l0,-0.037l0,-0.037l0,-0.037l0,-0.037l0,-0.037l0,-0.037l0,-0.036l0,-0.037l0,-0.036l0,-0.036l0,-0.036l0,-0.036l0,-0.035l0,-0.036l0,-0.035l0,-0.035l0,-0.035l0,-0.035l0,-0.035l0,-0.034l0,-0.035l0,-0.034l0,-0.034l0,-0.034l0,-0.034l0,-0.034l0,-0.033l0,-0.033l0,-0.034l0,-0.033l0,-0.033l0,-0.033l0,-0.032l0,-0.033l0,-0.032l0,-0.032l0,-0.032l0,-0.032l0,-0.032l0,-0.032l0,-0.031l0,-0.032l0,-0.031l0,-0.031l0,-0.031l0,-0.031l0,-0.031l0,-0.03l0,-0.03l0,-0.031l0,-0.03l0,-0.03l0,-0.03l0,-0.029l0,-0.03l0,-0.029l0,-0.03l0,-0.029l0,-0.029l0,-0.029l0,-0.028l0,-0.029l0,-0.029l0,-0.028l0,-0.028l0,-0.028l0,-0.028l0,-0.028l0,-0.028l0,-0.027l0,-0.028l0,-0.027l0,-0.027l0,-0.027l0,-0.027l0,-0.027l0,-0.026l0,-0.027l0,-0.026l0,-0.026l0,-0.027l0,-0.026l0,-0.025l0,-0.026l0,-0.026l0,-0.025l0,-0.026l0,-0.025l0,-0.025l0,-0.025l0,-0.025l0,-0.024l0,-0.025l0,-0.024l0,-0.025l0,-0.024l0,-0.024l0,-0.024l0,-0.024l0,-0.024l0,-0.023l0,-0.024l0,-0.023l0,-0.023l0,-0.023l0,-0.023l0,-0.023l0,-0.023l0,-0.023l0,-0.022l0,-0.023l0,-0.022l0,-0.022l0,-0.022l0,-0.022l0,-0.022l0,-0.021l0,-0.022l0,-0.021l0,-0.022l0,-0.021l0,-0.021l0,-0.021l0,-0.021l0,-0.021l0,-0.02l0,-0.021l0,-0.02l0,-0.02l0,-0.021l0,-0.02l0,-0.02l0,-0.02l0,-0.019l0,-0.02l0,-0.019l0,-0.02l0,-0.019l0,-0.019l0,-0.019l0,-0.019l0,-0.019l0,-0.019l0,-0.019l0,-0.018l0,-0.018l0,-0.019l0,-0.018l0,-0.018l0,-0.018l0,-0.018l0,-0.018l0,-0.017l0,-0.018l0,-0.017l0,-0.018l0,-0.017l0,-0.017l0,-0.017l0,-0.017l0,-0.017l0,-0.017l0,-0.016l0,-0.017l0,-0.016l0,-0.016l0,-0.017l0,-0.016l0,-0.016l0,-0.016l0,-0.015l0,-0.016l0,-0.016l0,-0.015l0,-0.016l0,-0.015l0,-0.015l0,-0.015l0,-0.015l0,-0.015l0,-0.015l0,-0.015l0,-0.014l0,-0.015l0,-0.014l0,-0.015l0,-0.014l0,-0.014l0,-0.014l0,-0.014l0,-0.014l0,-0.014l0,-0.013l0,-0.014l0,-0.014l0,-0.013l0,-0.013l0,-0.013l0,-0.014l0,-0.013l0,-0.013l0,-0.012l0,-0.013l0,-0.013l0,-0.012l0,-0.013l0,-0.012l0,-0.013l0,-0.012l0,-0.012l0,-0.012l0,-0.012l0,-0.012l0,-0.012l0,-0.011l0,-0.012l0,-0.012l0,-0.011l0,-0.011l0,-0.012l0,-0.011l0,-0.011l0,-0.011l0,-0.011l0,-0.011l0,-0.011l0,-0.01l0,-0.011l0,-0.01l0,-0.011l0,-0.01l0,-0.011l0,-0.01l0,-0.01l0,-0.01l0,-0.01l0,-0.01l0,-0.01l0,-0.009l0,-0.01l0,-0.009l0,-0.01l0,-0.009l0,-0.01l0,-0.009l0,-0.009l0,-0.009l0,-0.009l0,-0.009l0,-0.009l0,-0.005l9.017,-3.425l9.016,3.425l0,6.414c0,3.791 -2.252,6.804 -4.664,8.935c-1.195,1.055 -2.394,1.862 -3.295,2.406Z" style="fill:none;stroke:#c61f40;stroke-width:1.99px;"/></svg>