<?xml version="1.0" encoding="UTF-8" standalone="no"?><!DOCTYPE svg PUBLIC "-//W3C//DTD SVG 1.1//EN" "http://www.w3.org/Graphics/SVG/1.1/DTD/svg11.dtd"><svg width="100%" height="100%" viewBox="0 0 10 19" version="1.1" xmlns="http://www.w3.org/2000/svg" xmlns:xlink="http://www.w3.org/1999/xlink" xml:space="preserve" xmlns:serif="http://www.serif.com/" style="fill-rule:evenodd;clip-rule:evenodd;stroke-linejoin:round;stroke-miterlimit:1.41421;"><path d="M6.9,12.9c0,-0.4 -0.1,-0.8 -0.4,-1.1c-0.2,-0.3 -0.6,-0.6 -1,-0.8c-0.4,-0.2 -0.8,-0.4 -1.3,-0.6c-0.5,-0.2 -1,-0.4 -1.4,-0.7c-0.4,-0.3 -0.9,-0.6 -1.3,-0.9c-0.4,-0.3 -0.7,-0.7 -1,-1.3c-0.2,-0.5 -0.3,-1 -0.3,-1.7c0,-1 0.3,-1.8 1,-2.5c0.6,-0.8 1.4,-1.3 2.5,-1.5l0,-1.8l2.5,0l0,1.8c1.3,0.2 2.3,0.7 3.1,1.5l-1.4,2c-0.8,-0.8 -1.7,-1.2 -2.7,-1.2c-0.7,0 -1.3,0.1 -1.7,0.4c-0.4,0.4 -0.6,0.8 -0.6,1.3c0,0.5 0.2,0.9 0.5,1.3c0.3,0.4 0.8,0.6 1.2,0.8c0.5,0.2 1,0.5 1.6,0.7c0.7,0.3 1.3,0.6 1.8,0.9c0.5,0.3 0.9,0.7 1.2,1.3c0.3,0.6 0.5,1.3 0.5,2c0,1.1 -0.3,1.9 -1,2.7c-0.7,0.7 -1.5,1.2 -2.6,1.4l0,2l-2.4,0l0,-2c-0.8,-0.1 -1.6,-0.4 -2.3,-0.8c-0.7,-0.4 -1.1,-0.9 -1.4,-1.5l1.5,-1.6c0.4,0.5 0.9,1 1.6,1.2c0.6,0.3 1.3,0.4 1.9,0.4c0.6,0 1.1,-0.2 1.5,-0.5c0.3,-0.2 0.4,-0.7 0.4,-1.2Z" style="fill:#f37032;fill-rule:nonzero;"/></svg>