<svg width="10" height="13" viewBox="0 0 10 13" fill="none" xmlns="http://www.w3.org/2000/svg">
<path d="M8.3333 5.68755V3.25003C8.3333 1.45842 6.83845 0 5 0C3.16207 0 1.6667 1.45842 1.6667 3.25003V5.68755C0.746201 5.68755 0 6.41517 0 7.31245V11.375C0 12.2725 0.746201 13 1.6667 13H8.3333C9.25361 13 10 12.2725 10 11.375V7.31245C10 6.41515 9.25361 5.68755 8.3333 5.68755ZM5.4167 9.62536V10.9687C5.4167 11.1933 5.23036 11.375 5.00003 11.375C4.7697 11.375 4.58333 11.1933 4.58333 10.9687V9.62536C4.33876 9.48419 4.16672 9.235 4.16672 8.93752C4.16672 8.48835 4.53986 8.12499 5 8.12499C5.46014 8.12499 5.83334 8.48835 5.83334 8.93752C5.83337 9.235 5.66112 9.48422 5.4167 9.62536ZM6.66659 5.68755H3.33335V3.25003C3.33335 2.35342 4.08079 1.62499 5 1.62499C5.91877 1.62499 6.66657 2.35342 6.66657 3.25003V5.68755H6.66659Z" fill="#353535"/>
</svg>
