<?xml version="1.0" encoding="UTF-8" standalone="no"?><!DOCTYPE svg PUBLIC "-//W3C//DTD SVG 1.1//EN" "http://www.w3.org/Graphics/SVG/1.1/DTD/svg11.dtd"><svg width="100%" height="100%" viewBox="0 0 20 24" version="1.1" xmlns="http://www.w3.org/2000/svg" xmlns:xlink="http://www.w3.org/1999/xlink" xml:space="preserve" xmlns:serif="http://www.serif.com/" style="fill-rule:evenodd;clip-rule:evenodd;"><path d="M6.841,9.75l-1.591,1.591l4.243,4.243l1.591,-1.591l-4.243,-4.243Z" style="fill:#49b869;"/><path d="M16.087,9.091l-1.591,-1.591l-6.364,6.364l1.591,1.591l6.364,-6.364Z" style="fill:#49b869;"/><path d="M11.061,22.285c-0.436,0.264 -0.799,0.463 -1.056,0.599c-0.256,-0.136 -0.62,-0.335 -1.055,-0.599c-0.901,-0.544 -2.098,-1.353 -3.291,-2.41c-2.409,-2.135 -4.659,-5.153 -4.659,-8.951l0,-0.041l0,-0.042l0,-0.041l0,-0.041l0,-0.041l0,-0.041l0,-0.041l0,-0.04l0,-0.041l0,-0.04l0,-0.04l0,-0.04l0,-0.039l0,-0.04l0,-0.039l0,-0.04l0,-0.039l0,-0.038l0,-0.039l0,-0.039l0,-0.038l0,-0.039l0,-0.038l0,-0.038l0,-0.037l0,-0.038l0,-0.038l0,-0.037l0,-0.037l0,-0.037l0,-0.037l0,-0.037l0,-0.036l0,-0.037l0,-0.036l0,-0.036l0,-0.036l0,-0.036l0,-0.036l0,-0.035l0,-0.035l0,-0.036l0,-0.035l0,-0.035l0,-0.034l0,-0.035l0,-0.034l0,-0.035l0,-0.034l0,-0.034l0,-0.034l0,-0.034l0,-0.033l0,-0.034l0,-0.033l0,-0.033l0,-0.033l0,-0.033l0,-0.033l0,-0.032l0,-0.033l0,-0.032l0,-0.032l0,-0.032l0,-0.032l0,-0.032l0,-0.031l0,-0.032l0,-0.031l0,-0.031l0,-0.031l0,-0.031l0,-0.031l0,-0.03l0,-0.031l0,-0.03l0,-0.03l0,-0.03l0,-0.03l0,-0.03l0,-0.03l0,-0.029l0,-0.029l0,-0.03l0,-0.029l0,-0.029l0,-0.028l0,-0.029l0,-0.029l0,-0.028l0,-0.028l0,-0.028l0,-0.028l0,-0.028l0,-0.028l0,-0.028l0,-0.027l0,-0.027l0,-0.028l0,-0.027l0,-0.027l0,-0.026l0,-0.027l0,-0.027l0,-0.026l0,-0.026l0,-0.026l0,-0.027l0,-0.025l0,-0.026l0,-0.026l0,-0.025l0,-0.026l0,-0.025l0,-0.025l0,-0.025l0,-0.025l0,-0.025l0,-0.024l0,-0.025l0,-0.024l0,-0.025l0,-0.024l0,-0.024l0,-0.024l0,-0.023l0,-0.024l0,-0.024l0,-0.023l0,-0.023l0,-0.023l0,-0.023l0,-0.023l0,-0.023l0,-0.023l0,-0.022l0,-0.023l0,-0.022l0,-0.022l0,-0.022l0,-0.022l0,-0.022l0,-0.022l0,-0.021l0,-0.022l0,-0.021l0,-0.022l0,-0.021l0,-0.021l0,-0.021l0,-0.02l0,-0.021l0,-0.021l0,-0.02l0,-0.02l0,-0.021l0,-0.02l0,-0.02l0,-0.02l0,-0.019l0,-0.02l0,-0.02l0,-0.019l0,-0.019l0,-0.02l0,-0.019l0,-0.019l0,-0.018l0,-0.019l0,-0.019l0,-0.018l0,-0.019l0,-0.018l0,-0.018l0,-0.019l0,-0.018l0,-0.018l0,-0.017l0,-0.018l0,-0.018l0,-0.017l0,-0.017l0,-0.018l0,-0.017l0,-0.017l0,-0.017l0,-0.017l0,-0.017l0,-0.016l0,-0.017l0,-0.016l0,-0.017l0,-0.016l0,-0.016l0,-0.016l0,-0.016l0,-0.016l0,-0.015l0,-0.016l0,-0.016l0,-0.015l0,-0.015l0,-0.016l0,-0.015l0,-0.015l0,-0.015l0,-0.015l0,-0.014l0,-0.015l0,-0.015l0,-0.014l0,-0.014l0,-0.015l0,-0.014l0,-0.014l0,-0.014l0,-0.014l0,-0.014l0,-0.013l0,-0.014l0,-0.013l0,-0.014l0,-0.013l0,-0.013l0,-0.014l0,-0.013l0,-0.013l0,-0.012l0,-0.013l0,-0.013l0,-0.013l0,-0.012l0,-0.012l0,-0.013l0,-0.012l0,-0.012l0,-0.012l0,-0.012l0,-0.012l0,-0.012l0,-0.012l0,-0.011l0,-0.012l0,-0.011l0,-0.012l0,-0.011l0,-0.011l0,-0.011l0,-0.011l0,-0.011l0,-0.011l0,-0.011l0,-0.011l0,-0.01l0,-0.011l0,-0.01l0,-0.011l0,-0.01l0,-0.01l0,-0.011l0,-0.01l0,-0.01l0,-0.009l0,-0.01l0,-0.01l0,-0.01l0,-0.009l0,-0.01l0,-0.009l0,-0.01l0,-0.009l0,-0.009l0,-0.009l0,-0.009l0,-0.009l0,-0.009l0,-0.005l9.005,-3.431l9.005,3.431l0,6.425c0,3.798 -2.25,6.816 -4.659,8.951c-1.192,1.057 -2.39,1.866 -3.29,2.41Z" style="fill:none;stroke:#49b869;stroke-width:1.99px;"/></svg>