<?xml version="1.0" encoding="UTF-8" standalone="no"?><!DOCTYPE svg PUBLIC "-//W3C//DTD SVG 1.1//EN" "http://www.w3.org/Graphics/SVG/1.1/DTD/svg11.dtd"><svg width="100%" height="100%" viewBox="0 0 19 17" version="1.1" xmlns="http://www.w3.org/2000/svg" xmlns:xlink="http://www.w3.org/1999/xlink" xml:space="preserve" xmlns:serif="http://www.serif.com/" style="fill-rule:evenodd;clip-rule:evenodd;stroke-linejoin:round;stroke-miterlimit:1.41421;"><path d="M11.1,5.7l0,-2.3l5.2,0l0,-3.4l-14.1,0l0,3.4l5.2,0l0,2.3c-4.2,0.2 -7.4,1 -7.4,2c0,1 3.2,1.8 7.4,2l0,7.3l3.7,0l0,-7.2c4.2,-0.2 7.4,-1 7.4,-2c0,-1 -3.2,-1.9 -7.4,-2.1Zm0,3.4l-3.8,0c-3.6,-0.1 -6.4,-0.8 -6.4,-1.5c0,-0.7 2.8,-1.5 6.5,-1.6l0,2.5c0.2,0 0.9,0.1 1.9,0.1c1.2,0 1.7,0 1.8,-0.1l0,-2.5c3.7,0.2 6.5,0.8 6.5,1.6c0,0.7 -2.8,1.4 -6.5,1.5Z" style="fill:#f37032;fill-rule:nonzero;"/></svg>