<?xml version="1.0" encoding="UTF-8" standalone="no"?><!DOCTYPE svg PUBLIC "-//W3C//DTD SVG 1.1//EN" "http://www.w3.org/Graphics/SVG/1.1/DTD/svg11.dtd"><svg width="100%" height="100%" viewBox="0 0 24 24" version="1.1" xmlns="http://www.w3.org/2000/svg" xmlns:xlink="http://www.w3.org/1999/xlink" xml:space="preserve" xmlns:serif="http://www.serif.com/" style="fill-rule:evenodd;clip-rule:evenodd;stroke-linejoin:round;stroke-miterlimit:1.41421;"><path d="M13.5,10.5l-3,0l0,3l3,0l0,-3Zm6,-10.5l-3,0l0,3l3,0l0,-3Zm-1.5,10.5l-3,0l0,3l3,0l0,-3Zm-10.5,-10.5l-3,0l0,3l3,0l0,-3Zm1.5,10.5l-3,0l0,3l3,0l0,-3Zm13.5,-10.5l-1.5,0l0,4.5l-6,0l0,-4.5l-6,0l0,4.5l-6,0l0,-4.5l-1.5,0c-0.9,0 -1.5,0.6 -1.5,1.5l0,21c0,0.9 0.6,1.5 1.5,1.5l21,0c0.9,0 1.5,-0.6 1.5,-1.5l0,-21c0,-0.9 -0.6,-1.5 -1.5,-1.5Zm-1.5,21l-18,0l0,-13.5l18,0l0,13.5Zm-12,-6l-3,0l0,3l3,0l0,-3Zm4.5,0l-3,0l0,3l3,0l0,-3Zm4.5,0l-3,0l0,3l3,0l0,-3Z" style="fill:#1a202d;"/></svg>