<svg width="49" height="42" viewBox="0 0 49 42" fill="none" xmlns="http://www.w3.org/2000/svg">
<g clip-path="url(#clip0)">
<path d="M21 20.9L10.5 33.6L0 20.9H21Z" fill="#E8623B"/>
<path d="M27.3 8V0C15.7 0 6.29999 9.4 6.29999 21H14.3C14.3 13.8 20.2 8 27.3 8Z" fill="#F19450"/>
<path d="M40.3 21C40.3 22.1 40.2 23.1 39.9 24C38.8 28.4 35.5 32 31.1 33.4C31 33.4 30.8 33.5 30.7 33.5C29.6 33.8 28.4 34 27.2 34C26.7 34 26.2 34 25.8 33.9C25.5 33.9 25.2 33.8 25 33.8C24.8 33.8 24.7 33.7 24.5 33.7C24.1 33.6 23.8 33.5 23.4 33.4C23.3 33.4 23.3 33.4 23.2 33.4C22.8 33.3 22.4 33.1 22 32.9C21.8 32.8 21.5 32.7 21.3 32.6L16.1 38.9C16.7 39.3 17.3 39.6 17.9 39.9C18.3 40.1 18.7 40.3 19 40.4C19 40.4 19.1 40.4 19.1 40.5C19.5 40.6 19.8 40.8 20.2 40.9C20.3 40.9 20.4 41 20.4 41C20.7 41.1 21.1 41.2 21.4 41.3C21.5 41.3 21.7 41.4 21.8 41.4C22.1 41.5 22.4 41.6 22.7 41.6C22.9 41.6 23.1 41.7 23.2 41.7C23.5 41.7 23.7 41.8 24 41.8C24.3 41.8 24.5 41.9 24.8 41.9C25 41.9 25.2 41.9 25.4 42C25.9 42 26.4 42.1 26.9 42.1C28.9 42.1 30.8 41.8 32.7 41.3C32.9 41.3 33 41.2 33.2 41.2C40.3 39 45.7 33.2 47.4 25.9C47.8 24.4 48 22.8 48 21.2H40.3V21Z" fill="#ED7549"/>
<path d="M33.6 0.9C33.4 0.9 33.3 0.8 33.1 0.8C31.3 0.3 29.3 0 27.3 0V8C28.5 8 29.7 8.2 30.8 8.5C30.9 8.5 31.1 8.6 31.2 8.6C35.5 10 38.9 13.5 40 18C40.2 19 40.4 20 40.4 21H48.4C48.4 19.4 48.2 17.8 47.8 16.3C46.1 9 40.6 3.1 33.6 0.9Z" fill="#F5A64C"/>
</g>
<defs>
<clipPath id="clip0">
<rect width="48.3" height="42" fill="white"/>
</clipPath>
</defs>
</svg>
