<svg width="16" height="20" viewBox="0 0 16 20" fill="none" xmlns="http://www.w3.org/2000/svg">
<path d="M15.1063 7.99707C15.4063 5.89707 13.8063 4.79707 11.6063 3.99707L12.3063 1.19707L10.6063 0.79707L9.90635 3.59707C9.40635 3.39707 9.00635 3.29707 8.50635 3.19707L9.20635 0.39707L7.50635 -0.00292969L6.70635 2.79707C6.40635 2.79707 6.00635 2.69707 5.60635 2.59707L3.20635 1.99707L2.80635 3.79707L4.10635 4.09707C4.80635 4.29707 4.90635 4.69707 4.90635 5.09707L4.00635 8.39707C4.00635 8.39707 4.10635 8.39707 4.20635 8.49707C4.10635 8.49707 4.10635 8.49707 4.00635 8.49707L2.90635 12.9971C2.80635 13.1971 2.60635 13.4971 2.10635 13.3971L0.806348 13.0971L0.00634766 14.9971L2.30635 15.5971C2.70635 15.6971 3.10635 15.7971 3.50635 15.8971L2.80635 18.7971L4.50635 19.1971L5.20635 16.3971C5.70635 16.4971 6.10635 16.5971 6.60635 16.7971L5.90635 19.5971L7.60635 19.9971L8.30635 17.0971C11.3063 17.6971 13.5063 17.3971 14.4063 14.7971C15.2063 12.5971 14.4063 11.3971 12.8063 10.5971C14.0063 10.2971 14.8063 9.59707 15.1063 7.99707ZM11.1063 13.5971C10.6063 15.7971 6.90635 14.5971 5.80635 14.2971L6.80635 10.4971C7.90635 10.7971 11.7063 11.3971 11.1063 13.5971ZM11.6063 7.99707C11.1063 9.99707 8.10635 8.99707 7.10635 8.69707L8.00635 5.29707C9.00635 5.49707 12.1063 5.99707 11.6063 7.99707Z" fill="#F37032"/>
</svg>
