<?xml version="1.0" encoding="UTF-8" standalone="no"?><!DOCTYPE svg PUBLIC "-//W3C//DTD SVG 1.1//EN" "http://www.w3.org/Graphics/SVG/1.1/DTD/svg11.dtd"><svg width="100%" height="100%" viewBox="0 0 16 20" version="1.1" xmlns="http://www.w3.org/2000/svg" xmlns:xlink="http://www.w3.org/1999/xlink" xml:space="preserve" xmlns:serif="http://www.serif.com/" style="fill-rule:evenodd;clip-rule:evenodd;stroke-linejoin:round;stroke-miterlimit:1.41421;"><path d="M13.306,4.697c-0.7,-2 -2.7,-2.2 -4.9,-1.9l-0.8,-2.8l-1.7,0.4l0.7,2.8c-0.5,0.1 -0.9,0.2 -1.4,0.4l-0.7,-2.8l-1.7,0.4l0.7,2.8c-0.4,0.2 -0.8,0.3 -1.1,0.3l-2.4,0.6l0.5,1.9l1.3,-0.3c0.7,-0.2 1,0.2 1.2,0.5l0.8,3.2c0,0 0.1,0 0.2,0c-0.1,0 -0.1,0 -0.2,0l1.1,4.5c0,0.2 0,0.6 -0.5,0.7l-1.3,0.3l0.1,2.3l2.3,-0.6c0.4,-0.1 0.8,-0.2 1.2,-0.3l0.8,2.9l1.7,-0.4l-0.7,-2.8c0.5,-0.1 0.9,-0.2 1.4,-0.3l0.7,2.8l1.7,-0.4l-0.7,-2.9c2.9,-0.9 4.7,-2.1 4.3,-4.9c-0.3,-2.3 -1.6,-3 -3.4,-3c0.9,-0.8 1.3,-1.9 0.8,-3.4Zm-0.9,6.8c0.5,2.2 -3.2,2.8 -4.4,3.1l-1,-3.8c1.2,-0.3 4.8,-1.5 5.4,0.7Zm-2.2,-5.2c0.5,2 -2.6,2.5 -3.6,2.7l-0.8,-3.4c0.9,-0.2 3.9,-1.3 4.4,0.7Z" style="fill:#f37032;fill-rule:nonzero;"/></svg>