<svg width="15" height="20" viewBox="0 0 15 20" fill="none" xmlns="http://www.w3.org/2000/svg">
<g clip-path="url(#clip0)">
<path d="M14.1923 20H0.807692C0.346154 20 0 19.6364 0 19.1515V10C0 9.51518 0.346154 9.09094 0.807692 9.09094H14.1923C14.6538 9.09094 15 9.45458 15 9.93943V19.1515C15 19.6364 14.6538 20 14.1923 20Z" fill="#BBBABB"/>
<path d="M11.0192 10.8485H9.28847V3.69697C9.28847 2.66667 8.48077 1.81818 7.5 1.81818C6.51923 1.81818 5.71154 2.66667 5.71154 3.69697V10.8485H3.98077V3.69697C3.98077 1.63636 5.53847 0 7.5 0C9.46154 0 11.0192 1.63636 11.0192 3.69697V10.8485Z" fill="#BBBABB"/>
</g>
<defs>
<clipPath id="clip0">
<rect width="15" height="20" fill="white"/>
</clipPath>
</defs>
</svg>
