<?xml version="1.0" encoding="UTF-8" standalone="no"?><!DOCTYPE svg PUBLIC "-//W3C//DTD SVG 1.1//EN" "http://www.w3.org/Graphics/SVG/1.1/DTD/svg11.dtd"><svg width="100%" height="100%" viewBox="0 0 24 24" version="1.1" xmlns="http://www.w3.org/2000/svg" xmlns:xlink="http://www.w3.org/1999/xlink" xml:space="preserve" xmlns:serif="http://www.serif.com/" style="fill-rule:evenodd;clip-rule:evenodd;stroke-linejoin:round;stroke-miterlimit:1.41421;"><path d="M5.5,11c0.828,0 1.5,-0.672 1.5,-1.5c0,-0.828 -0.672,-1.5 -1.5,-1.5c-0.828,0 -1.5,0.672 -1.5,1.5c0,0.828 0.672,1.5 1.5,1.5Z" style="fill:#f37032;fill-rule:nonzero;"/><path d="M24,5l-5,0l0,-5l-14,0l0,5l-5,0l0,15l5,0l0,4l14,0l0,-4l5,0l0,-15Zm-17,-3l10,0l0,3l-10,0l0,-3Zm10,20l-10,0l0,-2l0,-2l0,-3.1l10,0l0,7.1Zm5,-4l-3,0l0,-5.1l-14,0l0,5.1l-3,0l0,-11l20,0l0,11Z" style="fill:#f37032;fill-rule:nonzero;"/></svg>