<?xml version="1.0" encoding="UTF-8" standalone="no"?><!DOCTYPE svg PUBLIC "-//W3C//DTD SVG 1.1//EN" "http://www.w3.org/Graphics/SVG/1.1/DTD/svg11.dtd"><svg width="100%" height="100%" viewBox="0 0 19 16" version="1.1" xmlns="http://www.w3.org/2000/svg" xmlns:xlink="http://www.w3.org/1999/xlink" xml:space="preserve" xmlns:serif="http://www.serif.com/" style="fill-rule:evenodd;clip-rule:evenodd;stroke-linejoin:round;stroke-miterlimit:1.41421;"><path d="M7.011,14.13c-1.753,-0.693 -3.155,-2.078 -3.786,-3.879l1.753,-0.415l-3.506,-3.671l-1.472,4.848l1.823,-0.416c0.771,2.217 2.454,3.948 4.627,4.849c0.982,0.415 1.963,0.554 3.015,0.554c2.734,0 5.328,-1.385 6.871,-3.81l-1.192,-0.692c-1.683,2.701 -5.118,3.809 -8.133,2.632Z" style="fill:#f37032;fill-rule:nonzero;"/><path d="M17.107,5.403c-0.771,-2.217 -2.454,-3.948 -4.627,-4.849c-3.646,-1.385 -7.783,-0.069 -9.886,3.256l1.192,0.692c1.753,-2.701 5.188,-3.809 8.203,-2.632c1.753,0.693 3.155,2.078 3.786,3.879l-1.753,0.346l3.506,3.671l1.472,-4.848l-1.893,0.485Z" style="fill:#f37032;fill-rule:nonzero;"/></svg>