<?xml version="1.0" encoding="UTF-8" standalone="no"?><!DOCTYPE svg PUBLIC "-//W3C//DTD SVG 1.1//EN" "http://www.w3.org/Graphics/SVG/1.1/DTD/svg11.dtd"><svg width="100%" height="100%" viewBox="0 0 16 16" version="1.1" xmlns="http://www.w3.org/2000/svg" xmlns:xlink="http://www.w3.org/1999/xlink" xml:space="preserve" xmlns:serif="http://www.serif.com/" style="fill-rule:evenodd;clip-rule:evenodd;stroke-linejoin:round;stroke-miterlimit:1.41421;"><path d="M9,7l-2,0l0,5l2,0l0,-5Zm0,-3l-2,0l0,2l2,0l0,-2Zm-1,12c4.4,0 8,-3.6 8,-8c0,-4.4 -3.6,-8 -8,-8c-4.4,0 -8,3.6 -8,8c0,4.4 3.6,8 8,8Zm0,-14c3.3,0 6,2.7 6,6c0,3.3 -2.7,6 -6,6c-3.3,0 -6,-2.7 -6,-6c0,-3.3 2.7,-6 6,-6Z" style="fill:#f37032;"/></svg>