<svg width="24" height="14" viewBox="0 0 24 14" fill="none" xmlns="http://www.w3.org/2000/svg">
<path d="M23.7235 12.5922C23.7235 12.514 23.6469 12.514 23.6469 12.4358C23.2643 11.6536 22.4225 10.7151 21.2746 9.62011C20.7389 9.07263 20.4328 8.75978 20.2797 8.60335C20.0501 8.2905 19.9736 7.89944 20.1267 7.58659C20.2032 7.35196 20.5858 6.80447 21.2746 5.94413C21.5807 5.47486 21.8868 5.16201 22.1164 4.84916C23.5704 2.89385 24.1826 1.64246 23.953 1.09497L23.7235 0.860335C23.7235 0.782123 23.5704 0.703911 23.3408 0.703911C23.1112 0.625698 22.8817 0.625698 22.5756 0.703911H18.9788C18.9022 0.703911 18.8257 0.703911 18.7492 0.703911C18.6727 0.703911 18.5961 0.703911 18.5961 0.703911H18.5196H18.4431C18.4431 0.782123 18.3665 0.860335 18.3665 0.938548C18.29 1.01676 18.29 1.09497 18.2135 1.17318C17.8309 2.18994 17.3717 3.12849 16.9125 4.06704C16.6064 4.61452 16.3003 5.0838 16.0707 5.39665C15.8411 5.78771 15.6116 6.10056 15.4585 6.25698C15.3055 6.41341 15.1524 6.56983 14.9993 6.72626C14.8463 6.80447 14.7698 6.88268 14.6932 6.88268C14.6167 6.88268 14.5402 6.88268 14.4637 6.80447C14.3106 6.72626 14.2341 6.64805 14.1575 6.49162C14.081 6.3352 14.0045 6.17877 14.0045 6.02235C14.0045 5.78771 13.928 5.63129 13.928 5.47486C13.928 5.31844 13.928 5.16201 13.928 4.84916C13.928 4.61452 13.928 4.37989 13.928 4.30168C13.928 3.98883 13.928 3.59777 13.928 3.28492C13.928 2.89385 13.928 2.58101 13.928 2.42458C13.928 2.18994 13.928 1.95531 13.928 1.72067C13.928 1.48603 13.928 1.2514 13.8514 1.17318C13.8514 1.01676 13.7749 0.860335 13.6984 0.782123C13.6219 0.625698 13.5453 0.547486 13.4688 0.469274C13.3923 0.391061 13.2392 0.312849 13.0862 0.312849C12.7035 0.0782123 12.1678 0 11.4791 0C9.94855 0 8.95369 0.0782123 8.49453 0.312849C8.34147 0.391061 8.18842 0.547486 8.03537 0.703911C7.88231 0.860335 7.88231 1.01676 7.95884 1.01676C8.418 1.09497 8.80064 1.2514 9.03022 1.56425L9.10675 1.72067C9.18327 1.79888 9.18327 2.03352 9.2598 2.26816C9.33633 2.50279 9.33633 2.89385 9.33633 3.2067C9.41286 3.8324 9.41286 4.37989 9.33633 4.77095C9.2598 5.24022 9.2598 5.55307 9.18327 5.78771C9.18327 6.02235 9.10675 6.25698 9.03022 6.41341C8.95369 6.56983 8.87717 6.64805 8.87717 6.72626L8.80064 6.80447C8.72411 6.88268 8.57106 6.88268 8.49453 6.88268C8.34147 6.88268 8.26495 6.80447 8.03537 6.72626C7.88231 6.56983 7.72926 6.41341 7.49967 6.25698C7.42315 5.94413 7.27009 5.63129 7.04051 5.31844C6.81093 4.92737 6.58135 4.53631 6.35176 3.98883L6.12218 3.59777C5.96913 3.36313 5.81607 3.05028 5.58649 2.58101C5.43344 2.11173 5.20386 1.64246 5.0508 1.2514C4.97427 1.09497 4.89775 0.938547 4.74469 0.860335L4.66816 0.782123C4.66816 0.782123 4.59164 0.703911 4.51511 0.703911C4.43858 0.703911 4.36206 0.625698 4.209 0.625698H0.765273C0.382636 0.625698 0.153055 0.703911 0.0765273 0.860335L0 0.938548C0 1.01676 0 1.01676 0 1.17318C0 1.2514 0 1.40782 0.0765273 1.48603C0.535691 2.65922 1.14791 3.8324 1.6836 4.92737C2.29582 6.02235 2.75498 6.96089 3.21415 7.58659C3.67331 8.2905 4.05595 8.9162 4.51511 9.5419C4.97427 10.1676 5.28038 10.5587 5.43344 10.7151C5.58649 10.8715 5.66302 11.0279 5.73955 11.1061L6.04566 11.419C6.27524 11.6536 6.50482 11.8883 6.88746 12.1229C7.27009 12.4358 7.72926 12.6704 8.18842 12.9832C8.64758 13.2961 9.18327 13.4525 9.79549 13.6872C10.4077 13.8436 11.0199 13.9218 11.6321 13.9218H13.0862C13.3923 13.9218 13.6219 13.7654 13.7749 13.6089L13.8514 13.5307C13.8514 13.4525 13.928 13.3743 13.928 13.2961C13.928 13.2179 14.0045 13.0615 14.0045 12.9832C14.0045 12.5922 14.0045 12.2793 14.081 11.9665C14.1575 11.6536 14.2341 11.419 14.3106 11.3408C14.3871 11.1844 14.4637 11.1061 14.5402 10.9497C14.6167 10.8715 14.6932 10.7933 14.7698 10.7933C14.8463 10.7933 14.8463 10.7933 14.8463 10.7151C15.0759 10.6369 15.3055 10.7151 15.535 10.9497C15.8411 11.1844 16.0707 11.419 16.3003 11.6536C16.5299 11.9665 16.836 12.2793 17.1421 12.6704C17.4482 13.0615 17.7543 13.2961 17.9839 13.4525L18.2135 13.6089C18.3665 13.6872 18.5961 13.7654 18.8257 13.9218C19.0553 14 19.2849 14 19.5145 14L22.7286 13.9218C23.0347 13.9218 23.2643 13.8436 23.4939 13.7654C23.6469 13.6872 23.8 13.5307 23.8 13.4525C23.8 13.2961 23.8 13.2179 23.8 12.9832C23.8 12.7486 23.7235 12.5922 23.7235 12.5922Z" fill="white"/>
</svg>
