<?xml version="1.0" encoding="UTF-8" standalone="no"?><!DOCTYPE svg PUBLIC "-//W3C//DTD SVG 1.1//EN" "http://www.w3.org/Graphics/SVG/1.1/DTD/svg11.dtd"><svg width="100%" height="100%" viewBox="0 0 130 130" version="1.1" xmlns="http://www.w3.org/2000/svg" xmlns:xlink="http://www.w3.org/1999/xlink" xml:space="preserve" xmlns:serif="http://www.serif.com/" style="fill-rule:evenodd;clip-rule:evenodd;stroke-linejoin:round;stroke-miterlimit:1.41421;"><rect x="0" y="0" width="130" height="130" style="fill:#c4c4c4;"/><path d="M55.858,76.186c-0.98,0.603 -2.036,1.08 -3.167,1.432c-1.13,0.327 -2.337,0.49 -3.618,0.49c-1.96,0 -3.744,-0.39 -5.353,-1.168c-1.583,-0.779 -2.952,-1.797 -4.108,-3.054c-1.131,-1.256 -2.01,-2.701 -2.639,-4.334c-0.628,-1.634 -0.942,-3.305 -0.942,-5.014c0,-1.784 0.327,-3.492 0.98,-5.126c0.678,-1.633 1.596,-3.078 2.752,-4.335c1.181,-1.256 2.575,-2.249 4.184,-2.977c1.608,-0.754 3.354,-1.131 5.239,-1.131c1.935,0 3.694,0.402 5.277,1.206c1.608,0.779 2.978,1.809 4.108,3.091c1.131,1.282 2.011,2.739 2.639,4.372c0.628,1.634 0.942,3.292 0.942,4.976c0,1.734 -0.314,3.392 -0.942,4.975c-0.603,1.583 -1.457,2.991 -2.563,4.222l3.656,4.109l-4.9,0l-1.545,-1.734Zm-6.747,-2.677c0.678,0 1.306,-0.075 1.884,-0.226c0.603,-0.176 1.156,-0.402 1.659,-0.678l-4.071,-4.599l4.9,0l1.847,2.073c0.502,-0.804 0.892,-1.683 1.168,-2.638c0.277,-0.955 0.415,-1.922 0.415,-2.903c0,-1.155 -0.189,-2.274 -0.565,-3.354c-0.352,-1.081 -0.867,-2.036 -1.546,-2.865c-0.653,-0.829 -1.47,-1.495 -2.45,-1.998c-0.955,-0.502 -2.035,-0.753 -3.241,-0.753c-1.257,0 -2.375,0.263 -3.355,0.791c-0.98,0.503 -1.797,1.181 -2.45,2.035c-0.654,0.855 -1.156,1.822 -1.508,2.903c-0.327,1.055 -0.49,2.136 -0.49,3.241c0,1.156 0.176,2.275 0.528,3.355c0.352,1.081 0.854,2.036 1.507,2.865c0.679,0.829 1.496,1.495 2.451,1.998c0.98,0.502 2.085,0.753 3.317,0.753Zm21.344,4.411l0,-26.763l11.836,0c1.231,0 2.362,0.264 3.392,0.792c1.055,0.503 1.96,1.181 2.714,2.035c0.754,0.83 1.344,1.785 1.771,2.865c0.428,1.055 0.641,2.123 0.641,3.204c0,1.734 -0.44,3.317 -1.319,4.749c-0.854,1.408 -2.023,2.425 -3.505,3.053l6.106,10.065l-5.843,0l-5.465,-8.971l-5.126,0l0,8.971l-5.202,0Zm5.202,-13.532l6.521,0c0.477,0 0.917,-0.113 1.319,-0.34c0.427,-0.226 0.791,-0.527 1.093,-0.904c0.301,-0.402 0.54,-0.867 0.716,-1.395c0.176,-0.528 0.264,-1.093 0.264,-1.696c0,-0.628 -0.101,-1.206 -0.302,-1.734c-0.201,-0.528 -0.477,-0.98 -0.829,-1.357c-0.327,-0.402 -0.716,-0.703 -1.168,-0.904c-0.428,-0.227 -0.867,-0.34 -1.32,-0.34l-6.294,0l0,8.67Z" style="fill:#fff;fill-rule:nonzero;"/></svg>