<?xml version="1.0" encoding="UTF-8" standalone="no"?><!DOCTYPE svg PUBLIC "-//W3C//DTD SVG 1.1//EN" "http://www.w3.org/Graphics/SVG/1.1/DTD/svg11.dtd"><svg width="100%" height="100%" viewBox="0 0 155 99" version="1.1" xmlns="http://www.w3.org/2000/svg" xmlns:xlink="http://www.w3.org/1999/xlink" xml:space="preserve" xmlns:serif="http://www.serif.com/" style="fill-rule:evenodd;clip-rule:evenodd;stroke-linejoin:round;stroke-miterlimit:1.41421;"><path d="M107,48.939l37.3,0c0,0 -3.1,-3.7 -8.1,-3.7c0,0 -0.6,-6.9 -6.9,-6.9c-3.5,0 -4.7,1.7 -4.7,1.7c0,0 -1.2,-4.5 -6.7,-4c-5.1,0.5 -6.8,4.8 -6.9,8.1c0.1,0 -4,1 -4,4.8Z" style="fill:#fff;fill-opacity:0.3;fill-rule:nonzero;"/><path d="M79,88c0,0 -4.978,-8.414 -16.64,-8c0,0 -1.564,-12 -15.076,-12c-11.377,0 -15.36,9.517 -15.36,9.517c0,0 -15.217,-3.172 -16.924,10.483l64,0Z" style="fill:#fff;fill-opacity:0.3;fill-rule:nonzero;"/><path d="M134,78.1c0,-0.6 0.5,-1 1,-1c0.6,0 1,0.4 1,1c0,0.5 -0.4,1 -1,1c-0.5,0 -1,-0.5 -1,-1Zm-6,0c0,-0.6 0.5,-1 1,-1c0.6,0 1,0.4 1,1c0,0.5 -0.4,1 -1,1c-0.5,0 -1,-0.5 -1,-1Zm-6,0c0,-0.6 0.5,-1 1,-1c0.6,0 1,0.4 1,1c0,0.5 -0.4,1 -1,1c-0.5,0 -1,-0.5 -1,-1Zm-6,0c0,-0.6 0.5,-1 1,-1c0.6,0 1,0.4 1,1c0,0.5 -0.4,1 -1,1c-0.5,0 -1,-0.5 -1,-1Zm-6,0c0,-0.6 0.5,-1 1,-1c0.6,0 1,0.4 1,1c0,0.5 -0.4,1 -1,1c-0.5,0 -1,-0.5 -1,-1Zm-6,0c0,-0.6 0.5,-1 1,-1c0.6,0 1,0.4 1,1c0,0.5 -0.4,1 -1,1c-0.5,0 -1,-0.5 -1,-1Zm-6,0c0,-0.6 0.5,-1 1,-1c0.6,0 1,0.4 1,1c0,0.5 -0.4,1 -1,1c-0.5,0 -1,-0.5 -1,-1Zm-6,0c0,-0.6 0.5,-1 1,-1c0.6,0 1,0.4 1,1c0,0.5 -0.4,1 -1,1c-0.5,0 -1,-0.5 -1,-1Z" style="fill:#fff;fill-rule:nonzero;"/><path d="M152.4,85.1l-9.1,0c-1.4,0 -2.5,-1.1 -2.5,-2.5l0,-9.1c0,-1.4 1.1,-2.5 2.5,-2.5l9.1,0c1.4,0 2.5,1.1 2.5,2.5l0,9.1c0,1.4 -1.1,2.5 -2.5,2.5Zm-9.1,-13.1c-0.8,0 -1.5,0.7 -1.5,1.5l0,9.1c0,0.8 0.7,1.5 1.5,1.5l9.1,0c0.8,0 1.5,-0.7 1.5,-1.5l0,-9.1c0,-0.8 -0.7,-1.5 -1.5,-1.5l-9.1,0Z" style="fill:#fff;fill-rule:nonzero;"/><path d="M67,20.9c-0.6,0 -1,-0.5 -1,-1c0,-0.6 0.4,-1 1,-1c0.5,0 1,0.4 1,1c0,0.5 -0.4,1 -1,1Zm0,6c-0.6,0 -1,-0.5 -1,-1c0,-0.6 0.4,-1 1,-1c0.5,0 1,0.4 1,1c0,0.5 -0.4,1 -1,1Zm0,6c-0.6,0 -1,-0.5 -1,-1c0,-0.6 0.4,-1 1,-1c0.5,0 1,0.4 1,1c0,0.5 -0.4,1 -1,1Zm0,6c-0.6,0 -1,-0.5 -1,-1c0,-0.6 0.4,-1 1,-1c0.5,0 1,0.4 1,1c0,0.5 -0.4,1 -1,1Zm0,6c-0.6,0 -1,-0.5 -1,-1c0,-0.6 0.4,-1 1,-1c0.5,0 1,0.4 1,1c0,0.5 -0.4,1 -1,1Zm0,6c-0.6,0 -1,-0.5 -1,-1c0,-0.6 0.4,-1 1,-1c0.5,0 1,0.4 1,1c0,0.5 -0.4,1 -1,1Z" style="fill:#fff;fill-rule:nonzero;"/><path d="M74.1,2.5l0,9.1c0,1.4 -1.1,2.5 -2.5,2.5l-9.1,0c-1.4,0 -2.5,-1.1 -2.5,-2.5l0,-9.1c0,-1.4 1.1,-2.5 2.5,-2.5l9.1,0c1.3,0 2.5,1.1 2.5,2.5Zm-13.1,9.1c0,0.8 0.7,1.5 1.5,1.5l9.1,0c0.8,0 1.5,-0.7 1.5,-1.5l0,-9.1c0,-0.8 -0.7,-1.5 -1.5,-1.5l-9.1,0c-0.8,0 -1.5,0.7 -1.5,1.5l0,9.1Z" style="fill:#fff;fill-rule:nonzero;"/><path d="M59.9,56c0,-0.5 0.5,-1 1,-1c0.6,0 1,0.5 1,1c0,0.5 -0.4,1 -1,1c-0.5,0 -1,-0.4 -1,-1Zm-6,0c0,-0.5 0.5,-1 1,-1c0.6,0 1,0.5 1,1c0,0.5 -0.4,1 -1,1c-0.5,0 -1,-0.4 -1,-1Zm-6,0c0,-0.5 0.4,-1 1,-1c0.6,0 1,0.5 1,1c0,0.5 -0.4,1 -1,1c-0.5,0 -1,-0.4 -1,-1Zm-6,0c0,-0.5 0.5,-1 1,-1c0.6,0 1,0.5 1,1c0,0.5 -0.4,1 -1,1c-0.5,0 -1,-0.4 -1,-1Zm-6,0c0,-0.5 0.4,-1 1,-1c0.6,0 1,0.5 1,1c0,0.5 -0.4,1 -1,1c-0.5,0 -1,-0.4 -1,-1Zm-6,0c0,-0.5 0.5,-1 1,-1c0.6,0 1,0.5 1,1c0,0.5 -0.4,1 -1,1c-0.5,0 -1,-0.4 -1,-1Zm-6,0c0,-0.5 0.4,-1 1,-1c0.6,0 1,0.5 1,1c0,0.5 -0.4,1 -1,1c-0.5,0 -1,-0.4 -1,-1Zm-6,0c0,-0.5 0.4,-1 1,-1c0.6,0 1,0.5 1,1c0,0.5 -0.4,1 -1,1c-0.5,0 -1,-0.4 -1,-1Z" style="fill:#fff;fill-rule:nonzero;"/><path d="M11.6,63.1l-9.1,0c-1.4,0 -2.5,-1.1 -2.5,-2.5l0,-9.1c0,-1.4 1.1,-2.5 2.5,-2.5l9.1,0c1.4,0 2.5,1.1 2.5,2.5l0,9.1c0,1.4 -1.1,2.5 -2.5,2.5Zm-9.1,-13.1c-0.8,0 -1.5,0.7 -1.5,1.5l0,9.1c0,0.8 0.7,1.5 1.5,1.5l9.1,0c0.8,0 1.5,-0.7 1.5,-1.5l0,-9.1c0,-0.8 -0.7,-1.5 -1.5,-1.5l-9.1,0Z" style="fill:#fff;fill-rule:nonzero;"/><path d="M111.246,39.251c-13.647,-13.647 -35.85,-13.647 -49.497,0c-13.647,13.647 -13.647,35.851 0,49.498c13.647,13.647 35.85,13.647 49.497,0c13.647,-13.647 13.647,-35.851 0,-49.498Zm-15.344,37.972l-9.404,-9.405l-9.405,9.405l-3.889,-3.889l9.404,-9.405l-9.333,-9.334l3.889,-3.889l9.404,9.405l9.334,-9.334l3.889,3.889l-9.404,9.405l9.333,9.333l-3.818,3.819Z" style="fill:#fff;fill-rule:nonzero;"/></svg>