<?xml version="1.0" encoding="UTF-8" standalone="no"?><!DOCTYPE svg PUBLIC "-//W3C//DTD SVG 1.1//EN" "http://www.w3.org/Graphics/SVG/1.1/DTD/svg11.dtd"><svg width="100%" height="100%" viewBox="0 0 162 99" version="1.1" xmlns="http://www.w3.org/2000/svg" xmlns:xlink="http://www.w3.org/1999/xlink" xml:space="preserve" xmlns:serif="http://www.serif.com/" style="fill-rule:evenodd;clip-rule:evenodd;stroke-linejoin:round;stroke-miterlimit:1.41421;"><path d="M124.714,81.1l37.3,0c0,0 -3.1,-3.7 -8.1,-3.7c0,0 -0.6,-6.9 -6.9,-6.9c-3.5,0 -4.7,1.7 -4.7,1.7c0,0 -1.2,-4.5 -6.7,-4c-5.1,0.5 -6.8,4.8 -6.9,8.1c0.1,0 -4,1 -4,4.8Z" style="fill:#fff;fill-opacity:0.3;fill-rule:nonzero;"/><path d="M88,45c0,0 -4.978,-8.414 -16.64,-8c0,0 -1.564,-12 -15.076,-12c-11.377,0 -15.36,9.517 -15.36,9.517c0,0 -15.217,-3.172 -16.924,10.483l64,0Z" style="fill:#fff;fill-opacity:0.3;fill-rule:nonzero;"/><path d="M137.2,48.5c0,-0.6 0.5,-1 1,-1c0.6,0 1,0.4 1,1c0,0.5 -0.4,1 -1,1c-0.5,0 -1,-0.5 -1,-1Zm-6,0c0,-0.6 0.5,-1 1,-1c0.6,0 1,0.4 1,1c0,0.5 -0.4,1 -1,1c-0.5,0 -1,-0.5 -1,-1Zm-6,0c0,-0.6 0.5,-1 1,-1c0.6,0 1,0.4 1,1c0,0.5 -0.4,1 -1,1c-0.5,0 -1,-0.5 -1,-1Zm-6,0c0,-0.6 0.5,-1 1,-1c0.6,0 1,0.4 1,1c0,0.5 -0.4,1 -1,1c-0.5,0 -1,-0.5 -1,-1Zm-6,0c0,-0.6 0.5,-1 1,-1c0.6,0 1,0.4 1,1c0,0.5 -0.4,1 -1,1c-0.5,0 -1,-0.5 -1,-1Zm-6,0c0,-0.6 0.5,-1 1,-1c0.6,0 1,0.4 1,1c0,0.5 -0.4,1 -1,1c-0.5,0 -1,-0.5 -1,-1Zm-6,0c0,-0.6 0.5,-1 1,-1c0.6,0 1,0.4 1,1c0,0.5 -0.4,1 -1,1c-0.5,0 -1,-0.5 -1,-1Zm-6,0c0,-0.6 0.5,-1 1,-1c0.6,0 1,0.4 1,1c0,0.5 -0.4,1 -1,1c-0.5,0 -1,-0.5 -1,-1Z" style="fill:#fff;fill-rule:nonzero;"/><path d="M155.6,55.5l-9.1,0c-1.4,0 -2.5,-1.1 -2.5,-2.5l0,-9.1c0,-1.4 1.1,-2.5 2.5,-2.5l9.1,0c1.4,0 2.5,1.1 2.5,2.5l0,9.1c0,1.4 -1.1,2.5 -2.5,2.5Zm-9.1,-13.1c-0.8,0 -1.5,0.7 -1.5,1.5l0,9.1c0,0.8 0.7,1.5 1.5,1.5l9.1,0c0.8,0 1.5,-0.7 1.5,-1.5l0,-9.1c0,-0.8 -0.7,-1.5 -1.5,-1.5l-9.1,0Z" style="fill:#fff;fill-rule:nonzero;"/><path d="M96.2,20.9c-0.6,0 -1,-0.5 -1,-1c0,-0.6 0.4,-1 1,-1c0.5,0 1,0.4 1,1c0,0.5 -0.4,1 -1,1Zm0,6c-0.6,0 -1,-0.5 -1,-1c0,-0.6 0.4,-1 1,-1c0.5,0 1,0.4 1,1c0,0.5 -0.4,1 -1,1Zm0,6c-0.6,0 -1,-0.5 -1,-1c0,-0.6 0.4,-1 1,-1c0.5,0 1,0.4 1,1c0,0.5 -0.4,1 -1,1Zm0,6c-0.6,0 -1,-0.5 -1,-1c0,-0.6 0.4,-1 1,-1c0.5,0 1,0.4 1,1c0,0.5 -0.4,1 -1,1Zm0,6c-0.6,0 -1,-0.5 -1,-1c0,-0.6 0.4,-1 1,-1c0.5,0 1,0.4 1,1c0,0.5 -0.4,1 -1,1Zm0,6c-0.6,0 -1,-0.5 -1,-1c0,-0.6 0.4,-1 1,-1c0.5,0 1,0.4 1,1c0,0.5 -0.4,1 -1,1Z" style="fill:#fff;fill-rule:nonzero;"/><path d="M103.3,2.5l0,9.1c0,1.4 -1.1,2.5 -2.5,2.5l-9.1,0c-1.4,0 -2.5,-1.1 -2.5,-2.5l0,-9.1c0,-1.4 1.1,-2.5 2.5,-2.5l9.1,0c1.3,0 2.5,1.1 2.5,2.5Zm-13.1,9.1c0,0.8 0.7,1.5 1.5,1.5l9.1,0c0.8,0 1.5,-0.7 1.5,-1.5l0,-9.1c0,-0.8 -0.7,-1.5 -1.5,-1.5l-9.1,0c-0.8,0 -1.5,0.7 -1.5,1.5l0,9.1Z" style="fill:#fff;fill-rule:nonzero;"/><path d="M59.9,78.6c0,-0.5 0.5,-1 1,-1c0.6,0 1,0.5 1,1c0,0.5 -0.4,1 -1,1c-0.5,0 -1,-0.4 -1,-1Zm-6,0c0,-0.5 0.5,-1 1,-1c0.6,0 1,0.5 1,1c0,0.5 -0.4,1 -1,1c-0.5,0 -1,-0.4 -1,-1Zm-6,0c0,-0.5 0.4,-1 1,-1c0.6,0 1,0.5 1,1c0,0.5 -0.4,1 -1,1c-0.5,0 -1,-0.4 -1,-1Zm-6,0c0,-0.5 0.5,-1 1,-1c0.6,0 1,0.5 1,1c0,0.5 -0.4,1 -1,1c-0.5,0 -1,-0.4 -1,-1Zm-6,0c0,-0.5 0.4,-1 1,-1c0.6,0 1,0.5 1,1c0,0.5 -0.4,1 -1,1c-0.5,0 -1,-0.4 -1,-1Zm-6,0c0,-0.5 0.5,-1 1,-1c0.6,0 1,0.5 1,1c0,0.5 -0.4,1 -1,1c-0.5,0 -1,-0.4 -1,-1Zm-6,0c0,-0.5 0.4,-1 1,-1c0.6,0 1,0.5 1,1c0,0.5 -0.4,1 -1,1c-0.5,0 -1,-0.4 -1,-1Zm-6,0c0,-0.5 0.4,-1 1,-1c0.6,0 1,0.5 1,1c0,0.5 -0.4,1 -1,1c-0.5,0 -1,-0.4 -1,-1Z" style="fill:#fff;fill-rule:nonzero;"/><path d="M11.6,85.7l-9.1,0c-1.4,0 -2.5,-1.1 -2.5,-2.5l0,-9.1c0,-1.4 1.1,-2.5 2.5,-2.5l9.1,0c1.4,0 2.5,1.1 2.5,2.5l0,9.1c0,1.4 -1.1,2.5 -2.5,2.5Zm-9.1,-13.1c-0.8,0 -1.5,0.7 -1.5,1.5l0,9.1c0,0.8 0.7,1.5 1.5,1.5l9.1,0c0.8,0 1.5,-0.7 1.5,-1.5l0,-9.1c0,-0.8 -0.7,-1.5 -1.5,-1.5l-9.1,0Z" style="fill:#fff;fill-rule:nonzero;"/><path d="M85.1,28.9c-19.3,0 -35,15.7 -35,35c0,19.3 15.7,35 35,35c19.3,0 35,-15.7 35,-35c0,-19.3 -15.7,-35 -35,-35Zm-3.5,48.7l-15.5,-15.6l4.2,-4.2l11.3,11.3l18.4,-18.4l4.2,4.2l-22.6,22.7Z" style="fill:#fff;fill-rule:nonzero;"/></svg>