<svg width="108" height="36" viewBox="0 0 108 36" fill="none" xmlns="http://www.w3.org/2000/svg">
<path d="M23.0291 16.9458H12.6591V19.054H23.0291V16.9458Z" fill="#F37032"/>
<path d="M7.14563 11.4846V24.4952H28.5625V11.4846H7.14563ZM26.4726 22.4071H9.23557V13.5928H26.4726V22.4071Z" fill="#F37032"/>
<path d="M13.3358 1.28516H12.679V13.6131H13.3358V1.28516Z" fill="#F37032"/>
<path d="M23.0291 1.28516H22.3723V13.6131H23.0291V1.28516Z" fill="#F37032"/>
<path d="M13.3358 22.4072H12.679V34.7352H13.3358V22.4072Z" fill="#F37032"/>
<path d="M23.0291 22.4072H22.3723V34.7352H23.0291V22.4072Z" fill="#F37032"/>
<path d="M9.23451 18.3283L9.23451 17.6658L0.436872 17.6658L0.436872 18.3283L9.23451 18.3283Z" fill="#F37032"/>
<path d="M35.2744 18.323L35.2744 17.6604L26.4767 17.6604L26.4767 18.323L35.2744 18.323Z" fill="#F37032"/>
<path d="M17.854 36C8.00147 36 0 27.9286 0 18.01C0 8.07139 8.00147 0 17.854 0C27.6867 0 35.7081 8.07139 35.7081 18.01C35.6882 27.9286 27.6867 36 17.854 36ZM17.854 0.662577C8.37965 0.662577 0.656837 8.45287 0.656837 18.01C0.656837 27.5672 8.35975 35.3575 17.854 35.3575C27.3284 35.3575 35.0512 27.5873 35.0512 18.01C35.0313 8.45287 27.3284 0.662577 17.854 0.662577Z" fill="#F37032"/>
<path d="M45.5009 7.24829L49.6609 27.1457L53.8408 7.24829H55.1146L50.6362 28.772H48.6458L44.1076 7.24829H45.5009Z" fill="#F37032"/>
<path d="M66.4998 17.207V18.492H60.8869V27.487H67.6344V28.772H59.5334V7.24829H67.6344V8.53329H60.8869V17.207H66.4998Z" fill="#F37032"/>
<path d="M77.4471 18.733L73.2673 28.772H71.9337L76.5912 17.6086L72.272 7.24829H73.6653L77.5466 16.5043L81.4678 7.24829H82.7615L78.4423 17.6086L83.0601 28.772H81.6071L77.4471 18.733Z" fill="#F37032"/>
<path d="M94.4652 17.207V18.492H88.8522V27.487H95.6196V28.772H87.4987V7.24829H95.6196V8.53329H88.8522V17.207H94.4652Z" fill="#F37032"/>
<path d="M100.178 28.772V7.24829H101.531V27.487H108V28.772H100.178Z" fill="#F37032"/>
</svg>
