<svg width="16" height="20" viewBox="0 0 16 20" fill="none" xmlns="http://www.w3.org/2000/svg">
    <path d="M15.106 7.997c.3-2.1-1.3-3.2-3.5-4l.7-2.8-1.7-.4-.7 2.8c-.5-.2-.9-.3-1.4-.4l.7-2.8-1.7-.4-.8 2.8c-.3 0-.7-.1-1.1-.2l-2.4-.6-.4 1.8 1.3.3c.7.2.8.6.8 1l-.9 3.3s.1 0 .2.1h-.2l-1.1 4.5c-.1.2-.3.5-.8.4l-1.3-.3-.8 1.9 2.3.6 1.2.3-.7 2.9 1.7.4.7-2.8c.5.1.9.2 1.4.4l-.7 2.8 1.7.4.7-2.9c3 .6 5.2.3 6.1-2.3.8-2.2 0-3.4-1.6-4.2 1.2-.3 2-1 2.3-2.6zm-4 5.6c-.5 2.2-4.2 1-5.3.7l1-3.8c1.1.3 4.9.9 4.3 3.1zm.5-5.6c-.5 2-3.5 1-4.5.7l.9-3.4c1 .2 4.1.7 3.6 2.7z" fill="#F37032"/>
</svg>
