<svg width="49" height="42" viewBox="0 0 49 42" fill="none" xmlns="http://www.w3.org/2000/svg">
    <g clip-path="url(#a)">
        <path d="M21 20.9L10.5 33.6 0 20.9h21z" fill="#E8623B"/>
        <path d="M27.3 8V0c-11.6 0-21 9.4-21 21h8c0-7.2 5.9-13 13-13z" fill="#F19450"/>
        <path d="M40.3 21c0 1.1-.1 2.1-.4 3-1.1 4.4-4.4 8-8.8 9.4-.1 0-.3.1-.4.1-1.1.3-2.3.5-3.5.5-.5 0-1 0-1.4-.1-.3 0-.6-.1-.8-.1-.2 0-.3-.1-.5-.1-.4-.1-.7-.2-1.1-.3h-.2c-.4-.1-.8-.3-1.2-.5-.2-.1-.5-.2-.7-.3l-5.2 6.3c.6.4 1.2.7 1.8 1 .4.2.8.4 1.1.5 0 0 .1 0 .1.1.4.1.7.3 1.1.4.1 0 .2.1.2.1.3.1.7.2 1 .3.1 0 .3.1.4.1.3.1.6.2.9.2.2 0 .4.1.5.1.3 0 .5.1.8.1.3 0 .5.1.8.1.2 0 .4 0 .6.1.5 0 1 .1 1.5.1 2 0 3.9-.3 5.8-.8.2 0 .3-.1.5-.1 7.1-2.2 12.5-8 14.2-15.3.4-1.5.6-3.1.6-4.7h-7.7V21z" fill="#ED7549"/>
        <path d="M33.6.9c-.2 0-.3-.1-.5-.1-1.8-.5-3.8-.8-5.8-.8v8c1.2 0 2.4.2 3.5.5.1 0 .3.1.4.1 4.3 1.4 7.7 4.9 8.8 9.4.2 1 .4 2 .4 3h8c0-1.6-.2-3.2-.6-4.7C46.1 9 40.6 3.1 33.6.9z" fill="#F5A64C"/>
    </g>
    <defs>
        <clipPath id="a">
            <path fill="#fff" d="M0 0h48.3v42H0z"/>
        </clipPath>
    </defs>
</svg>
