<svg viewBox="0 0 24 15" xmlns="http://www.w3.org/2000/svg" fill-rule="evenodd" clip-rule="evenodd" stroke-linejoin="round" stroke-miterlimit="1.414">
    <path d="M12.282 1.456c1.13 0 6.918.292 10.165 6.044-3.176 5.752-8.965 6.044-10.165 6.044h-.353-.211c-1.13 0-6.918-.292-10.165-6.044C4.8 1.748 10.588 1.456 11.718 1.456h.564zm0-1.456H12h-.282C10.306 0 3.459.364 0 7.5 3.459 14.636 10.306 15 11.718 15h.564c1.412 0 8.259-.364 11.718-7.5C20.541.364 13.694 0 12.282 0z" fill="#f37032" fill-rule="nonzero"/>
    <path d="M12 12a4.5 4.5 0 1 0 0-9 4.5 4.5 0 0 0 0 9z" fill="#f37032" fill-rule="nonzero"/>
</svg>
