<svg viewBox="0 0 20 24" xmlns="http://www.w3.org/2000/svg" fill-rule="evenodd" clip-rule="evenodd">
    <path d="M6.841 9.75L5.25 11.341l4.243 4.243 1.591-1.591L6.841 9.75z" fill="#49b869"/>
    <path d="M16.087 9.091L14.496 7.5l-6.364 6.364 1.591 1.591 6.364-6.364z" fill="#49b869"/>
    <path d="M11.061 22.285c-.436.264-.799.463-1.056.599a22.799 22.799 0 0 1-4.346-3.009C3.25 17.74 1 14.722 1 10.924V4.499l9.005-3.431 9.005 3.431v6.425c0 3.798-2.25 6.816-4.659 8.951a22.797 22.797 0 0 1-3.29 2.41z" fill="none" stroke="#49b869" stroke-width="1.99"/>
</svg>
