<svg viewBox="0 0 155 99" xmlns="http://www.w3.org/2000/svg" fill-rule="evenodd" clip-rule="evenodd" stroke-linejoin="round" stroke-miterlimit="1.414">
    <path d="M107 48.939h37.3s-3.1-3.7-8.1-3.7c0 0-.6-6.9-6.9-6.9-3.5 0-4.7 1.7-4.7 1.7s-1.2-4.5-6.7-4c-5.1.5-6.8 4.8-6.9 8.1.1 0-4 1-4 4.8z" fill="#fff" fill-opacity=".3" fill-rule="nonzero"/>
    <path d="M79 88s-4.978-8.414-16.64-8c0 0-1.564-12-15.076-12-11.377 0-15.36 9.517-15.36 9.517S16.707 74.345 15 88h64z" fill="#fff" fill-opacity=".3" fill-rule="nonzero"/>
    <path d="M134 78.1c0-.6.5-1 1-1 .6 0 1 .4 1 1 0 .5-.4 1-1 1-.5 0-1-.5-1-1zm-6 0c0-.6.5-1 1-1 .6 0 1 .4 1 1 0 .5-.4 1-1 1-.5 0-1-.5-1-1zm-6 0c0-.6.5-1 1-1 .6 0 1 .4 1 1 0 .5-.4 1-1 1-.5 0-1-.5-1-1zm-6 0c0-.6.5-1 1-1 .6 0 1 .4 1 1 0 .5-.4 1-1 1-.5 0-1-.5-1-1zm-6 0c0-.6.5-1 1-1 .6 0 1 .4 1 1 0 .5-.4 1-1 1-.5 0-1-.5-1-1zm-6 0c0-.6.5-1 1-1 .6 0 1 .4 1 1 0 .5-.4 1-1 1-.5 0-1-.5-1-1zm-6 0c0-.6.5-1 1-1 .6 0 1 .4 1 1 0 .5-.4 1-1 1-.5 0-1-.5-1-1zm-6 0c0-.6.5-1 1-1 .6 0 1 .4 1 1 0 .5-.4 1-1 1-.5 0-1-.5-1-1z" fill="#fff" fill-rule="nonzero"/>
    <path d="M152.4 85.1h-9.1c-1.4 0-2.5-1.1-2.5-2.5v-9.1c0-1.4 1.1-2.5 2.5-2.5h9.1c1.4 0 2.5 1.1 2.5 2.5v9.1c0 1.4-1.1 2.5-2.5 2.5zM143.3 72c-.8 0-1.5.7-1.5 1.5v9.1c0 .8.7 1.5 1.5 1.5h9.1c.8 0 1.5-.7 1.5-1.5v-9.1c0-.8-.7-1.5-1.5-1.5h-9.1z" fill="#fff" fill-rule="nonzero"/>
    <path d="M67 20.9c-.6 0-1-.5-1-1 0-.6.4-1 1-1 .5 0 1 .4 1 1 0 .5-.4 1-1 1zm0 6c-.6 0-1-.5-1-1 0-.6.4-1 1-1 .5 0 1 .4 1 1 0 .5-.4 1-1 1zm0 6c-.6 0-1-.5-1-1 0-.6.4-1 1-1 .5 0 1 .4 1 1 0 .5-.4 1-1 1zm0 6c-.6 0-1-.5-1-1 0-.6.4-1 1-1 .5 0 1 .4 1 1 0 .5-.4 1-1 1zm0 6c-.6 0-1-.5-1-1 0-.6.4-1 1-1 .5 0 1 .4 1 1 0 .5-.4 1-1 1zm0 6c-.6 0-1-.5-1-1 0-.6.4-1 1-1 .5 0 1 .4 1 1 0 .5-.4 1-1 1z" fill="#fff" fill-rule="nonzero"/>
    <path d="M74.1 2.5v9.1c0 1.4-1.1 2.5-2.5 2.5h-9.1c-1.4 0-2.5-1.1-2.5-2.5V2.5C60 1.1 61.1 0 62.5 0h9.1c1.3 0 2.5 1.1 2.5 2.5zM61 11.6c0 .8.7 1.5 1.5 1.5h9.1c.8 0 1.5-.7 1.5-1.5V2.5c0-.8-.7-1.5-1.5-1.5h-9.1c-.8 0-1.5.7-1.5 1.5v9.1z" fill="#fff" fill-rule="nonzero"/>
    <path d="M59.9 56c0-.5.5-1 1-1 .6 0 1 .5 1 1s-.4 1-1 1c-.5 0-1-.4-1-1zm-6 0c0-.5.5-1 1-1 .6 0 1 .5 1 1s-.4 1-1 1c-.5 0-1-.4-1-1zm-6 0c0-.5.4-1 1-1s1 .5 1 1-.4 1-1 1c-.5 0-1-.4-1-1zm-6 0c0-.5.5-1 1-1 .6 0 1 .5 1 1s-.4 1-1 1c-.5 0-1-.4-1-1zm-6 0c0-.5.4-1 1-1s1 .5 1 1-.4 1-1 1c-.5 0-1-.4-1-1zm-6 0c0-.5.5-1 1-1 .6 0 1 .5 1 1s-.4 1-1 1c-.5 0-1-.4-1-1zm-6 0c0-.5.4-1 1-1s1 .5 1 1-.4 1-1 1c-.5 0-1-.4-1-1zm-6 0c0-.5.4-1 1-1s1 .5 1 1-.4 1-1 1c-.5 0-1-.4-1-1z" fill="#fff" fill-rule="nonzero"/>
    <path d="M11.6 63.1H2.5C1.1 63.1 0 62 0 60.6v-9.1C0 50.1 1.1 49 2.5 49h9.1c1.4 0 2.5 1.1 2.5 2.5v9.1c0 1.4-1.1 2.5-2.5 2.5zM2.5 50c-.8 0-1.5.7-1.5 1.5v9.1c0 .8.7 1.5 1.5 1.5h9.1c.8 0 1.5-.7 1.5-1.5v-9.1c0-.8-.7-1.5-1.5-1.5H2.5z" fill="#fff" fill-rule="nonzero"/>
    <path d="M111.246 39.251c-13.647-13.647-35.85-13.647-49.497 0-13.647 13.647-13.647 35.851 0 49.498 13.647 13.647 35.85 13.647 49.497 0 13.647-13.647 13.647-35.851 0-49.498zM95.902 77.223l-9.404-9.405-9.405 9.405-3.889-3.889 9.404-9.405-9.333-9.334 3.889-3.889 9.404 9.405 9.334-9.334 3.889 3.889-9.404 9.405 9.333 9.333-3.818 3.819z" fill="#fff" fill-rule="nonzero"/>
</svg>
