<svg viewBox="0 0 130 130" xmlns="http://www.w3.org/2000/svg" fill-rule="evenodd" clip-rule="evenodd" stroke-linejoin="round" stroke-miterlimit="1.414">
    <path fill="#c4c4c4" d="M0 0h130v130H0z"/>
    <path d="M55.858 76.186c-.98.603-2.036 1.08-3.167 1.432-1.13.327-2.337.49-3.618.49-1.96 0-3.744-.39-5.353-1.168a13.8 13.8 0 0 1-4.108-3.054 13.852 13.852 0 0 1-2.639-4.334 13.866 13.866 0 0 1-.942-5.014c0-1.784.327-3.492.98-5.126a14.637 14.637 0 0 1 2.752-4.335 13.084 13.084 0 0 1 4.184-2.977c1.608-.754 3.354-1.131 5.239-1.131 1.935 0 3.694.402 5.277 1.206 1.608.779 2.978 1.809 4.108 3.091a14.318 14.318 0 0 1 2.639 4.372c.628 1.634.942 3.292.942 4.976 0 1.734-.314 3.392-.942 4.975a13.387 13.387 0 0 1-2.563 4.222l3.656 4.109h-4.9l-1.545-1.734zm-6.747-2.677c.678 0 1.306-.075 1.884-.226a8.23 8.23 0 0 0 1.659-.678l-4.071-4.599h4.9l1.847 2.073a10.41 10.41 0 0 0 1.168-2.638c.277-.955.415-1.922.415-2.903 0-1.155-.189-2.274-.565-3.354a8.745 8.745 0 0 0-1.546-2.865 7.339 7.339 0 0 0-2.45-1.998c-.955-.502-2.035-.753-3.241-.753-1.257 0-2.375.263-3.355.791a7.15 7.15 0 0 0-2.45 2.035 9.652 9.652 0 0 0-1.508 2.903 10.888 10.888 0 0 0-.49 3.241c0 1.156.176 2.275.528 3.355a9.172 9.172 0 0 0 1.507 2.865 7.885 7.885 0 0 0 2.451 1.998c.98.502 2.085.753 3.317.753zm21.344 4.411V51.157h11.836c1.231 0 2.362.264 3.392.792a8.4 8.4 0 0 1 2.714 2.035 9.308 9.308 0 0 1 1.771 2.865 8.456 8.456 0 0 1 .641 3.204c0 1.734-.44 3.317-1.319 4.749-.854 1.408-2.023 2.425-3.505 3.053l6.106 10.065h-5.843l-5.465-8.971h-5.126v8.971h-5.202zm5.202-13.532h6.521c.477 0 .917-.113 1.319-.34a3.458 3.458 0 0 0 1.093-.904c.301-.402.54-.867.716-1.395a5.328 5.328 0 0 0 .264-1.696c0-.628-.101-1.206-.302-1.734a4.097 4.097 0 0 0-.829-1.357 3.132 3.132 0 0 0-1.168-.904 2.781 2.781 0 0 0-1.32-.34h-6.294v8.67z" fill="#fff" fill-rule="nonzero"/>
</svg>
