<svg width="24" height="14" viewBox="0 0 24 14" fill="none" xmlns="http://www.w3.org/2000/svg">
    <path d="M23.724 12.592c0-.078-.077-.078-.077-.156-.383-.782-1.224-1.72-2.372-2.816l-.995-1.017c-.23-.313-.306-.704-.153-1.016.076-.235.459-.783 1.148-1.643.306-.47.612-.782.841-1.095 1.454-1.955 2.067-3.207 1.837-3.754l-.23-.235c0-.078-.153-.156-.382-.156-.23-.078-.46-.078-.765 0h-4.133c0 .078-.077.156-.077.235-.076.078-.076.156-.152.234-.383 1.017-.842 1.955-1.301 2.894a13.396 13.396 0 0 1-.842 1.33c-.23.39-.46.704-.613.86l-.459.47c-.153.077-.23.156-.306.156-.076 0-.153 0-.23-.079a.604.604 0 0 1-.305-.312c-.077-.157-.153-.313-.153-.47 0-.234-.077-.39-.077-.547v-.626-.547-1.017-.86-.704c0-.235 0-.47-.077-.548a.604.604 0 0 0-.153-.39c-.076-.157-.153-.236-.23-.314a.578.578 0 0 0-.382-.156C12.703.078 12.168 0 11.48 0 9.95 0 8.954.078 8.495.313c-.154.078-.307.234-.46.39-.153.157-.153.314-.076.314.459.078.842.234 1.071.547l.077.157c.076.078.076.313.153.547.076.235.076.626.076.939.077.625.077 1.173 0 1.564-.076.47-.076.782-.153 1.017a1.5 1.5 0 0 1-.153.625c-.076.157-.153.235-.153.313l-.076.078c-.077.079-.23.079-.306.079-.154 0-.23-.079-.46-.157-.153-.156-.306-.313-.535-.469a2.666 2.666 0 0 0-.46-.939c-.23-.39-.459-.782-.688-1.33l-.23-.39c-.153-.235-.306-.548-.536-1.017-.153-.47-.382-.939-.535-1.33-.077-.156-.153-.312-.306-.39L4.668.781S4.592.704 4.515.704c-.076 0-.153-.078-.306-.078H.765C.383.626.153.704.077.86L0 .94v.234c0 .078 0 .235.077.313.459 1.173 1.07 2.346 1.607 3.441.612 1.095 1.071 2.034 1.53 2.66.46.704.842 1.33 1.301 1.955.46.626.765 1.017.918 1.173.153.156.23.313.307.391l.306.313c.23.235.459.47.841.704.383.313.842.547 1.301.86.46.313.995.47 1.607.704a7.394 7.394 0 0 0 1.837.235h1.454a.96.96 0 0 0 .689-.313l.076-.078c0-.079.077-.157.077-.235 0-.078.076-.234.076-.313 0-.39 0-.704.077-1.017.077-.312.153-.547.23-.625.076-.157.153-.235.23-.391.076-.079.152-.157.229-.157.076 0 .076 0 .076-.078.23-.078.46 0 .689.235.306.234.536.469.765.704.23.313.536.625.842 1.016.306.392.612.626.842.783l.23.156c.152.078.382.156.612.313.23.078.459.078.689.078l3.214-.078c.306 0 .535-.078.765-.157.153-.078.306-.234.306-.313v-.469c0-.234-.076-.39-.076-.39z" fill="#fff"/>
</svg>
