<svg width="10" height="13" viewBox="0 0 10 13" fill="none" xmlns="http://www.w3.org/2000/svg">
    <path d="M8.333 5.688V3.25C8.333 1.458 6.838 0 5 0S1.667 1.458 1.667 3.25v2.438C.747 5.688 0 6.415 0 7.312v4.063C0 12.273.746 13 1.667 13h6.666c.92 0 1.667-.727 1.667-1.625V7.312c0-.897-.746-1.624-1.667-1.624zM5.417 9.625v1.344a.411.411 0 0 1-.417.406.411.411 0 0 1-.417-.406V9.625a.797.797 0 0 1-.416-.687c0-.45.373-.813.833-.813.46 0 .833.363.833.813a.797.797 0 0 1-.416.687zm1.25-3.937H3.333V3.25c0-.897.748-1.625 1.667-1.625s1.667.728 1.667 1.625v2.438z" fill="#353535"/>
</svg>
