<svg width="24" height="24" viewBox="0 0 24 24" fill="none" xmlns="http://www.w3.org/2000/svg">
    <path d="M11.995 2.162c3.205 0 3.581.014 4.848.071 1.171.053 1.805.248 2.228.415.562.219.962.476 1.381.895.42.419.681.819.896 1.38.162.425.361 1.058.414 2.23.057 1.266.071 1.642.071 4.847 0 3.205-.014 3.581-.071 4.848-.053 1.171-.248 1.804-.414 2.228a3.722 3.722 0 0 1-.896 1.381c-.419.42-.819.681-1.38.895-.424.162-1.058.362-2.23.415-1.266.057-1.642.071-4.847.071-3.205 0-3.58-.014-4.847-.071-1.172-.053-1.805-.248-2.229-.415a3.723 3.723 0 0 1-1.38-.895 3.664 3.664 0 0 1-.896-1.38c-.162-.425-.362-1.058-.414-2.23-.058-1.266-.072-1.642-.072-4.847 0-3.205.014-3.58.072-4.848.052-1.171.247-1.804.414-2.228.219-.562.476-.962.895-1.381a3.665 3.665 0 0 1 1.381-.895c.424-.162 1.057-.362 2.229-.415 1.266-.062 1.647-.071 4.847-.071zm0-2.162C8.738 0 8.33.014 7.048.071 5.77.13 4.9.333 4.138.63a5.847 5.847 0 0 0-2.124 1.385A5.95 5.95 0 0 0 .63 4.138C.333 4.9.129 5.771.07 7.052.014 8.33 0 8.738 0 11.995c0 3.257.014 3.667.071 4.948.058 1.276.262 2.147.558 2.914.304.79.719 1.457 1.385 2.124a5.952 5.952 0 0 0 2.124 1.386c.762.295 1.633.5 2.914.557 1.281.057 1.686.071 4.948.071 3.262 0 3.667-.014 4.948-.071 1.276-.057 2.147-.262 2.914-.557a5.848 5.848 0 0 0 2.124-1.386 5.95 5.95 0 0 0 1.385-2.124c.296-.762.5-1.633.558-2.914.057-1.281.071-1.686.071-4.948 0-3.262-.014-3.666-.071-4.947-.058-1.277-.262-2.148-.558-2.915a5.846 5.846 0 0 0-1.385-2.123A5.95 5.95 0 0 0 19.862.624c-.762-.295-1.633-.5-2.914-.557C15.662.014 15.252 0 11.995 0z" fill="#fff"/>
    <path d="M11.995 5.838a6.163 6.163 0 1 0 .002 12.326 6.163 6.163 0 0 0-.002-12.326zm0 10.157a4 4 0 1 1-.001-7.999 4 4 0 0 1 .001 7.999z" fill="#fff"/>
    <path d="M18.4 7.029a1.438 1.438 0 1 0 0-2.877 1.438 1.438 0 0 0 0 2.877z" fill="#fff"/>
</svg>
