<svg viewBox="0 0 10 19" xmlns="http://www.w3.org/2000/svg" fill-rule="evenodd" clip-rule="evenodd" stroke-linejoin="round" stroke-miterlimit="1.414">
    <path d="M6.9 12.9c0-.4-.1-.8-.4-1.1-.2-.3-.6-.6-1-.8-.4-.2-.8-.4-1.3-.6-.5-.2-1-.4-1.4-.7-.4-.3-.9-.6-1.3-.9-.4-.3-.7-.7-1-1.3-.2-.5-.3-1-.3-1.7 0-1 .3-1.8 1-2.5.6-.8 1.4-1.3 2.5-1.5V0h2.5v1.8c1.3.2 2.3.7 3.1 1.5l-1.4 2c-.8-.8-1.7-1.2-2.7-1.2-.7 0-1.3.1-1.7.4-.4.4-.6.8-.6 1.3s.2.9.5 1.3.8.6 1.2.8c.5.2 1 .5 1.6.7.7.3 1.3.6 1.8.9.5.3.9.7 1.2 1.3.3.6.5 1.3.5 2 0 1.1-.3 1.9-1 2.7-.7.7-1.5 1.2-2.6 1.4v2H3.7v-2c-.8-.1-1.6-.4-2.3-.8-.7-.4-1.1-.9-1.4-1.5L1.5 13c.4.5.9 1 1.6 1.2.6.3 1.3.4 1.9.4.6 0 1.1-.2 1.5-.5.3-.2.4-.7.4-1.2z" fill="#f37032" fill-rule="nonzero"/>
</svg>
