<svg viewBox="0 0 16 20" xmlns="http://www.w3.org/2000/svg" fill-rule="evenodd" clip-rule="evenodd" stroke-linejoin="round" stroke-miterlimit="1.414">
    <path d="M13.306 4.697c-.7-2-2.7-2.2-4.9-1.9l-.8-2.8-1.7.4.7 2.8c-.5.1-.9.2-1.4.4l-.7-2.8-1.7.4.7 2.8c-.4.2-.8.3-1.1.3l-2.4.6.5 1.9 1.3-.3c.7-.2 1 .2 1.2.5l.8 3.2h.2-.2l1.1 4.5c0 .2 0 .6-.5.7l-1.3.3.1 2.3 2.3-.6 1.2-.3.8 2.9 1.7-.4-.7-2.8c.5-.1.9-.2 1.4-.3l.7 2.8 1.7-.4-.7-2.9c2.9-.9 4.7-2.1 4.3-4.9-.3-2.3-1.6-3-3.4-3 .9-.8 1.3-1.9.8-3.4zm-.9 6.8c.5 2.2-3.2 2.8-4.4 3.1l-1-3.8c1.2-.3 4.8-1.5 5.4.7zm-2.2-5.2c.5 2-2.6 2.5-3.6 2.7l-.8-3.4c.9-.2 3.9-1.3 4.4.7z" fill="#f37032" fill-rule="nonzero"/>
</svg>
