<svg viewBox="0 0 19 16" xmlns="http://www.w3.org/2000/svg" fill-rule="evenodd" clip-rule="evenodd" stroke-linejoin="round" stroke-miterlimit="1.414">
    <path d="M7.011 14.13c-1.753-.693-3.155-2.078-3.786-3.879l1.753-.415-3.506-3.671L0 11.013l1.823-.416c.771 2.217 2.454 3.948 4.627 4.849.982.415 1.963.554 3.015.554 2.734 0 5.328-1.385 6.871-3.81l-1.192-.692c-1.683 2.701-5.118 3.809-8.133 2.632z" fill="#f37032" fill-rule="nonzero"/>
    <path d="M17.107 5.403c-.771-2.217-2.454-3.948-4.627-4.849C8.834-.831 4.697.485 2.594 3.81l1.192.692a6.83 6.83 0 0 1 8.203-2.632c1.753.693 3.155 2.078 3.786 3.879l-1.753.346 3.506 3.671L19 4.918l-1.893.485z" fill="#f37032" fill-rule="nonzero"/>
</svg>
