<svg width="15" height="20" viewBox="0 0 15 20" fill="none" xmlns="http://www.w3.org/2000/svg">
    <g clip-path="url(#a)" fill="#BBBABB">
        <path d="M14.192 20H.808C.346 20 0 19.636 0 19.151V10c0-.485.346-.91.808-.91h13.384c.462 0 .808.365.808.85v9.211c0 .485-.346.849-.808.849z"/>
        <path d="M11.02 10.848H9.287V3.697c0-1.03-.807-1.879-1.788-1.879-.98 0-1.788.849-1.788 1.879v7.151H3.98V3.697C3.98 1.637 5.538 0 7.5 0c1.962 0 3.52 1.636 3.52 3.697v7.151z"/>
    </g>
    <defs>
        <clipPath id="a">
            <path fill="#fff" d="M0 0h15v20H0z"/>
        </clipPath>
    </defs>
</svg>
