<svg viewBox="0 0 162 99" xmlns="http://www.w3.org/2000/svg" fill-rule="evenodd" clip-rule="evenodd" stroke-linejoin="round" stroke-miterlimit="1.414">
    <path d="M124.714 81.1h37.3s-3.1-3.7-8.1-3.7c0 0-.6-6.9-6.9-6.9-3.5 0-4.7 1.7-4.7 1.7s-1.2-4.5-6.7-4c-5.1.5-6.8 4.8-6.9 8.1.1 0-4 1-4 4.8z" fill="#fff" fill-opacity=".3" fill-rule="nonzero"/>
    <path d="M88 45s-4.978-8.414-16.64-8c0 0-1.564-12-15.076-12-11.377 0-15.36 9.517-15.36 9.517S25.707 31.345 24 45h64z" fill="#fff" fill-opacity=".3" fill-rule="nonzero"/>
    <path d="M137.2 48.5c0-.6.5-1 1-1 .6 0 1 .4 1 1 0 .5-.4 1-1 1-.5 0-1-.5-1-1zm-6 0c0-.6.5-1 1-1 .6 0 1 .4 1 1 0 .5-.4 1-1 1-.5 0-1-.5-1-1zm-6 0c0-.6.5-1 1-1 .6 0 1 .4 1 1 0 .5-.4 1-1 1-.5 0-1-.5-1-1zm-6 0c0-.6.5-1 1-1 .6 0 1 .4 1 1 0 .5-.4 1-1 1-.5 0-1-.5-1-1zm-6 0c0-.6.5-1 1-1 .6 0 1 .4 1 1 0 .5-.4 1-1 1-.5 0-1-.5-1-1zm-6 0c0-.6.5-1 1-1 .6 0 1 .4 1 1 0 .5-.4 1-1 1-.5 0-1-.5-1-1zm-6 0c0-.6.5-1 1-1 .6 0 1 .4 1 1 0 .5-.4 1-1 1-.5 0-1-.5-1-1zm-6 0c0-.6.5-1 1-1 .6 0 1 .4 1 1 0 .5-.4 1-1 1-.5 0-1-.5-1-1z" fill="#fff" fill-rule="nonzero"/>
    <path d="M155.6 55.5h-9.1c-1.4 0-2.5-1.1-2.5-2.5v-9.1c0-1.4 1.1-2.5 2.5-2.5h9.1c1.4 0 2.5 1.1 2.5 2.5V53c0 1.4-1.1 2.5-2.5 2.5zm-9.1-13.1c-.8 0-1.5.7-1.5 1.5V53c0 .8.7 1.5 1.5 1.5h9.1c.8 0 1.5-.7 1.5-1.5v-9.1c0-.8-.7-1.5-1.5-1.5h-9.1z" fill="#fff" fill-rule="nonzero"/>
    <path d="M96.2 20.9c-.6 0-1-.5-1-1 0-.6.4-1 1-1 .5 0 1 .4 1 1 0 .5-.4 1-1 1zm0 6c-.6 0-1-.5-1-1 0-.6.4-1 1-1 .5 0 1 .4 1 1 0 .5-.4 1-1 1zm0 6c-.6 0-1-.5-1-1 0-.6.4-1 1-1 .5 0 1 .4 1 1 0 .5-.4 1-1 1zm0 6c-.6 0-1-.5-1-1 0-.6.4-1 1-1 .5 0 1 .4 1 1 0 .5-.4 1-1 1zm0 6c-.6 0-1-.5-1-1 0-.6.4-1 1-1 .5 0 1 .4 1 1 0 .5-.4 1-1 1zm0 6c-.6 0-1-.5-1-1 0-.6.4-1 1-1 .5 0 1 .4 1 1 0 .5-.4 1-1 1z" fill="#fff" fill-rule="nonzero"/>
    <path d="M103.3 2.5v9.1c0 1.4-1.1 2.5-2.5 2.5h-9.1c-1.4 0-2.5-1.1-2.5-2.5V2.5c0-1.4 1.1-2.5 2.5-2.5h9.1c1.3 0 2.5 1.1 2.5 2.5zm-13.1 9.1c0 .8.7 1.5 1.5 1.5h9.1c.8 0 1.5-.7 1.5-1.5V2.5c0-.8-.7-1.5-1.5-1.5h-9.1c-.8 0-1.5.7-1.5 1.5v9.1z" fill="#fff" fill-rule="nonzero"/>
    <path d="M59.9 78.6c0-.5.5-1 1-1 .6 0 1 .5 1 1s-.4 1-1 1c-.5 0-1-.4-1-1zm-6 0c0-.5.5-1 1-1 .6 0 1 .5 1 1s-.4 1-1 1c-.5 0-1-.4-1-1zm-6 0c0-.5.4-1 1-1s1 .5 1 1-.4 1-1 1c-.5 0-1-.4-1-1zm-6 0c0-.5.5-1 1-1 .6 0 1 .5 1 1s-.4 1-1 1c-.5 0-1-.4-1-1zm-6 0c0-.5.4-1 1-1s1 .5 1 1-.4 1-1 1c-.5 0-1-.4-1-1zm-6 0c0-.5.5-1 1-1 .6 0 1 .5 1 1s-.4 1-1 1c-.5 0-1-.4-1-1zm-6 0c0-.5.4-1 1-1s1 .5 1 1-.4 1-1 1c-.5 0-1-.4-1-1zm-6 0c0-.5.4-1 1-1s1 .5 1 1-.4 1-1 1c-.5 0-1-.4-1-1z" fill="#fff" fill-rule="nonzero"/>
    <path d="M11.6 85.7H2.5c-1.4 0-2.5-1.1-2.5-2.5v-9.1c0-1.4 1.1-2.5 2.5-2.5h9.1c1.4 0 2.5 1.1 2.5 2.5v9.1c0 1.4-1.1 2.5-2.5 2.5zM2.5 72.6c-.8 0-1.5.7-1.5 1.5v9.1c0 .8.7 1.5 1.5 1.5h9.1c.8 0 1.5-.7 1.5-1.5v-9.1c0-.8-.7-1.5-1.5-1.5H2.5z" fill="#fff" fill-rule="nonzero"/>
    <path d="M85.1 28.9c-19.3 0-35 15.7-35 35s15.7 35 35 35 35-15.7 35-35-15.7-35-35-35zm-3.5 48.7L66.1 62l4.2-4.2 11.3 11.3L100 50.7l4.2 4.2-22.6 22.7z" fill="#fff" fill-rule="nonzero"/>
</svg>
