<svg width="108" height="36" viewBox="0 0 108 36" fill="none" xmlns="http://www.w3.org/2000/svg">
    <path d="M23.03 16.946H12.66v2.108h10.37v-2.108z" fill="#F37032"/>
    <path d="M7.146 11.485v13.01h21.416v-13.01H7.146zm19.327 10.922H9.236v-8.814h17.237v8.814z" fill="#F37032"/>
    <path d="M13.336 1.285h-.657v12.328h.657V1.285z" fill="#F37032"/>
    <path d="M23.03 1.285h-.658v12.328h.657V1.285z" fill="#F37032"/>
    <path d="M13.336 22.407h-.657v12.328h.657V22.407z" fill="#F37032"/>
    <path d="M23.03 22.407h-.658v12.328h.657V22.407z" fill="#F37032"/>
    <path d="M9.235 18.328v-.662H.437v.662h8.798z" fill="#F37032"/>
    <path d="M35.274 18.323v-.663h-8.797v.663h8.797z" fill="#F37032"/>
    <path d="M17.854 36C8.001 36 0 27.929 0 18.01 0 8.071 8.001 0 17.854 0c9.833 0 17.854 8.071 17.854 18.01C35.688 27.929 27.687 36 17.854 36zm0-35.337C8.38.663.657 8.453.657 18.01c0 9.557 7.703 17.348 17.197 17.348 9.474 0 17.197-7.77 17.197-17.348C35.031 8.453 27.328.663 17.854.663z" fill="#F37032"/>
    <path d="M45.5 7.248l4.16 19.898 4.18-19.898h1.275l-4.479 21.524h-1.99L44.108 7.248H45.5z" fill="#F37032"/>
    <path d="M66.5 17.207v1.285h-5.613v8.995h6.747v1.285h-8.1V7.248h8.1v1.285h-6.747v8.674H66.5z" fill="#F37032"/>
    <path d="M77.447 18.733l-4.18 10.039h-1.333l4.657-11.163-4.319-10.36h1.393l3.882 9.255 3.92-9.256h1.294l-4.319 10.36 4.618 11.164h-1.453l-4.16-10.039z" fill="#F37032"/>
    <path d="M94.465 17.207v1.285h-5.613v8.995h6.768v1.285h-8.121V7.248h8.12v1.285h-6.767v8.674h5.613z" fill="#F37032"/>
    <path d="M100.178 28.772V7.248h1.353v20.239H108v1.285h-7.822z" fill="#F37032"/>
</svg>
